<svg width="24" height="24" viewBox="0 0 24 24" fill="none" xmlns="http://www.w3.org/2000/svg">
<g clip-path="url(#clip0_196_2300)">
<path d="M12 7.71428V5.14285M12 7.71428C10.5771 7.71428 9.42853 7.71428 9.42853 9.42857C9.42853 12 14.5714 12 14.5714 14.5714C14.5714 16.2857 13.4228 16.2857 12 16.2857M12 7.71428C13.4228 7.71428 14.5714 8.36571 14.5714 9.42857M9.42853 14.5714C9.42853 15.8571 10.5771 16.2857 12 16.2857M12 16.2857V18.8571" stroke="#878787" stroke-width="1.71429" stroke-linecap="round" stroke-linejoin="round"/>
<path d="M12 23.1429C18.154 23.1429 23.1428 18.154 23.1428 12C23.1428 5.84597 18.154 0.857147 12 0.857147C5.84594 0.857147 0.857117 5.84597 0.857117 12C0.857117 18.154 5.84594 23.1429 12 23.1429Z" stroke="#878787" stroke-width="1.71429" stroke-linecap="round" stroke-linejoin="round"/>
</g>
<defs>
<clipPath id="clip0_196_2300">
<rect width="24" height="24" fill="white"/>
</clipPath>
</defs>
</svg>
